<?xml version="1.0" encoding="UTF-8"?> <!-- Creator: CorelDRAW 2017 --> <svg xmlns="http://www.w3.org/2000/svg" xmlns:xlink="http://www.w3.org/1999/xlink" xml:space="preserve" width="1979px" height="366px" shape-rendering="geometricPrecision" text-rendering="geometricPrecision" image-rendering="optimizeQuality" fill-rule="evenodd" clip-rule="evenodd" viewBox="0 0 1979 366.4"> <g id="Layer_x0020_1"> <metadata id="CorelCorpID_0Corel-Layer"></metadata> <g id="_1089666480"> <path fill="black" fill-rule="nonzero" d="M97.92 114.41l-93.96 0 -3.96 3.96 0 238.67 3.96 3.96 48.6 0 3.96 -3.96 0 -79.56 41.4 0c61.92,0 92.52,-37.44 92.52,-81.71 0,-44.28 -30.6,-81.36 -92.52,-81.36zm3.96 111.96l-45.36 0 0 -60.13 45.36 0c20.52,0 32.04,14.05 32.04,29.88 0,16.21 -11.52,30.25 -32.04,30.25z"></path> <path id="1" fill="black" fill-rule="nonzero" d="M322.15 109.01c-42.48,0 -96.12,26.64 -96.12,87.84l0 82.07c0,60.84 53.64,87.48 96.48,87.48 42.48,0 96.48,-26.64 96.48,-87.48l0 -82.07c0,-61.2 -54,-87.84 -96.84,-87.84zm40.32 161.28c0,24.83 -16.2,42.11 -39.96,42.11 -23.4,0 -39.96,-17.28 -39.96,-42.11l0 -65.16c0,-24.49 16.2,-42.12 39.6,-42.12 23.76,0 40.32,17.63 40.32,42.12l0 65.16z"></path> <path id="2" fill="black" fill-rule="nonzero" d="M573.01 114.41l-96.11 0 -3.96 3.96 0 238.67 3.96 3.96 48.59 0 3.97 -3.96 0 -79.56 48.59 0 29.88 79.92 5.4 3.6 52.2 0 2.88 -3.96 -37.08 -94.68c23.4,-15.12 34.2,-38.87 34.2,-66.24 0,-44.63 -30.6,-81.71 -92.52,-81.71zm36 81.71c0,15.84 -11.52,30.25 -32.4,30.25l-47.15 0 0 -60.13 47.15 0c20.88,0 32.4,14.05 32.4,29.88z"></path> <polygon id="3" fill="black" fill-rule="nonzero" points="892.64,114.41 707.6,114.41 703.64,118.37 703.64,164.45 707.6,168.41 771.68,168.41 771.68,357.04 775.64,361 824.24,361 828.2,357.04 828.2,168.41 892.64,168.41 896.6,164.45 896.6,118.37 "></polygon> <polygon id="4" fill="black" fill-rule="nonzero" points="1124.79,307 996.27,307 996.27,257.32 1086.63,257.32 1090.59,253.37 1090.59,209.45 1086.63,205.49 996.27,205.49 996.27,168.41 1124.07,168.41 1128.03,164.45 1128.03,118.37 1124.07,114.41 943.71,114.41 939.75,118.37 939.75,357.04 943.71,361 1124.79,361 1128.75,357.04 1128.75,310.96 "></polygon> <path id="5" fill="black" fill-rule="nonzero" d="M1284.58 114.41l-96.12 0 -3.96 3.96 0 238.67 3.96 3.96 48.6 0 3.96 -3.96 0 -79.56 48.6 0 29.88 79.92 5.4 3.6 52.2 0 2.88 -3.96 -37.08 -94.68c23.4,-15.12 34.2,-38.87 34.2,-66.24 0,-44.63 -30.6,-81.71 -92.52,-81.71zm36 81.71c0,15.84 -11.52,30.25 -32.4,30.25l-47.16 0 0 -60.13 47.16 0c20.88,0 32.4,14.05 32.4,29.88z"></path> <path id="6" fill="black" fill-rule="nonzero" d="M1738.93 262.72l-48.6 0 -3.96 3.96 0 3.61c0,24.83 -16.2,42.11 -39.6,42.11 -23.76,0 -40.32,-17.28 -40.32,-42.11l0 -65.16c0,-24.84 16.2,-42.12 39.96,-42.12 23.4,0 39.96,17.28 39.96,42.12l3.96 3.95 48.6 0 3.96 -3.95 0 -8.28c0,-61.2 -53.64,-87.84 -96.48,-87.84 -42.84,0 -96.48,26.64 -96.48,87.84l0 81.71c0,61.2 53.64,87.84 96.84,87.84 42.48,0 96.12,-26.64 96.12,-87.84l0 -11.88 -3.96 -3.96z"></path> <path id="7" fill="black" fill-rule="nonzero" d="M1975.04 262.72l-48.6 0 -3.96 3.96 0 3.61c0,24.83 -16.2,42.11 -39.6,42.11 -23.76,0 -40.32,-17.28 -40.32,-42.11l0 -65.16c0,-24.84 16.2,-42.12 39.96,-42.12 23.4,0 39.96,17.28 39.96,42.12l3.96 3.95 48.6 0 3.96 -3.95 0 -8.28c0,-61.2 -53.64,-87.84 -96.48,-87.84 -42.84,0 -96.48,26.64 -96.48,87.84l0 81.71c0,61.2 53.64,87.84 96.84,87.84 42.48,0 96.12,-26.64 96.12,-87.84l0 -11.88 -3.96 -3.96z"></path> <path fill="black" d="M1463.1 0c38.44,0 69.61,31.17 69.61,69.61 0,13.7 -3.3,24.37 -9.68,35.43l-28.26 48.95 -24.95 43.2 -13.44 0 -24.94 -43.2 -28.27 -48.95c-6.38,-11.07 -9.68,-21.73 -9.68,-35.43 0,-38.44 31.17,-69.61 69.61,-69.61zm0 45.35c13.4,0 24.26,10.86 24.26,24.26 0,13.4 -10.86,24.26 -24.26,24.26 -13.4,0 -24.26,-10.86 -24.26,-24.26 0,-13.4 10.86,-24.26 24.26,-24.26z"></path> </g> </g> </svg> 